<svg xmlns="http://www.w3.org/2000/svg" xmlns:xlink="http://www.w3.org/1999/xlink" version="1.1" width="1000" height="1000" viewBox="0 0 1000 1000" xml:space="preserve">
<desc>Created with Fabric.js 3.5.0</desc>
<defs>
</defs>
<rect x="0" y="0" width="100%" height="100%" fill="#ffffff"/>
<g transform="matrix(1 0 0 1 500 500)" style="" id="726616">
		
<path xml:space="preserve" font-family="Adamina" font-size="250" font-style="normal" font-weight="normal" style="stroke: none; stroke-width: 1; stroke-dasharray: none; stroke-linecap: butt; stroke-dashoffset: 0; stroke-linejoin: miter; stroke-miterlimit: 4; is-custom-font: none; font-file-url: none; fill: rgb(0,0,0); fill-rule: nonzero; opacity: 1; white-space: pre;" d="M-403.75 5.28L-426 67.53L-405.75 70.03Q-404.75 73.78-405.75 79.28L-405.75 79.28Q-421.50 78.53-432.25 78.53L-432.25 78.53Q-438.25 78.53-459.25 79.03L-459.25 79.03Q-460.75 74.53-459.25 70.03L-459.25 70.03L-442.75 67.03Q-438.75 61.03-432.75 44.78L-432.75 44.78L-368.25-127.72L-359.50-127.72L-287 67.53L-266.75 70.03Q-265.75 73.78-266.75 79.28L-266.75 79.28Q-282.50 78.53-302 78.53L-302 78.53Q-316.50 78.53-337.50 79.03L-337.50 79.03Q-339 74.53-337.50 70.03L-337.50 70.03L-316.75 67.03L-338.75 5.28L-403.75 5.28ZM-370.50-89.97L-370.50-89.97L-370.75-89.97Q-373.75-78.22-380.50-59.22L-380.50-59.22L-399.25-7.22L-343.25-7.22L-361.50-59.22Q-366.75-74.47-370.50-89.97Z"/><path xml:space="preserve" font-family="Adamina" font-size="250" font-style="normal" font-weight="normal" style="stroke: none; stroke-width: 1; stroke-dasharray: none; stroke-linecap: butt; stroke-dashoffset: 0; stroke-linejoin: miter; stroke-miterlimit: 4; is-custom-font: none; font-file-url: none; fill: rgb(0,0,0); fill-rule: nonzero; opacity: 1; white-space: pre;" d="M-160.25-14.47L-160.25-14.47L-160.25 65.78L-140 69.53Q-139.75 70.78-139.63 71.78Q-139.50 72.78-139.50 74.03L-139.50 74.03Q-139.50 75.28-139.63 76.66Q-139.75 78.03-140 79.53L-140 79.53Q-155.75 78.78-172.25 78.78L-172.25 78.78Q-178 78.78-186.13 78.91Q-194.25 79.03-204.75 79.28L-204.75 79.28Q-205.50 77.03-205.50 74.53L-205.50 74.53Q-205.50 72.28-204.75 69.53L-204.75 69.53L-185 66.78Q-184.50 59.78-184.25 51.91Q-184 44.03-184 35.03L-184 35.03L-184-18.22Q-184-34.72-184.75-42.72L-184.75-42.72L-204.50-45.22Q-205-46.47-205-49.47L-205-49.47Q-205-50.72-205-51.97Q-205-53.22-204.50-54.72L-204.50-54.72Q-187.50-55.72-161.50-59.97L-161.50-59.97Q-159.25-57.47-159-54.97L-159-54.97Q-160.25-47.97-160.25-14.47ZM-196.75-103.72L-196.75-103.72Q-197.25-104.97-197.25-106.34Q-197.25-107.72-197.25-108.97L-197.25-108.97Q-197.25-115.72-191.63-119.84Q-186-123.97-177.75-123.97L-177.75-123.97Q-170-123.97-165.13-119.34Q-160.25-114.72-160.25-106.72L-160.25-106.72Q-160.25-100.22-165.88-96.22Q-171.50-92.22-180.25-92.22L-180.25-92.22Q-186.25-92.22-190.88-95.22Q-195.50-98.22-196.75-103.72Z"/><path xml:space="preserve" font-family="Adamina" font-size="250" font-style="normal" font-weight="normal" style="stroke: none; stroke-width: 1; stroke-dasharray: none; stroke-linecap: butt; stroke-dashoffset: 0; stroke-linejoin: miter; stroke-miterlimit: 4; is-custom-font: none; font-file-url: none; fill: rgb(0,0,0); fill-rule: nonzero; opacity: 1; white-space: pre;" d="M-22.25-54.97L-22.25-54.97L-22.75-29.22Q-16.50-40.72-5.38-50.34Q5.75-59.97 15.75-59.97L15.75-59.97Q23.50-59.97 29.50-58.22L29.50-58.22Q31.50-54.97 31.50-49.72L31.50-49.72Q31.50-41.47 28-33.22L28-33.22Q19-35.72 10.75-35.72L10.75-35.72Q-9.75-35.72-23-15.72L-23-15.72L-23.50 28.03L-23.50 65.78L4.25 69.53Q5.25 73.53 4.25 79.53L4.25 79.53Q-11.50 78.78-31.75 78.78L-31.75 78.78Q-47 78.78-68 79.28L-68 79.28Q-69.50 74.53-68 69.53L-68 69.53L-48.25 66.78Q-47.25 53.03-47.25 35.03L-47.25 35.03L-47.25-33.47Q-47.25-38.47-48-42.72L-48-42.72L-67.75-45.22Q-68.75-48.97-67.75-54.72L-67.75-54.72Q-50.50-55.97-24.75-59.97L-24.75-59.97Q-22.50-57.47-22.25-54.97Z"/><path xml:space="preserve" font-family="Adamina" font-size="250" font-style="normal" font-weight="normal" style="stroke: none; stroke-width: 1; stroke-dasharray: none; stroke-linecap: butt; stroke-dashoffset: 0; stroke-linejoin: miter; stroke-miterlimit: 4; is-custom-font: none; font-file-url: none; fill: rgb(0,0,0); fill-rule: nonzero; opacity: 1; white-space: pre;" d="M121 38.03L121 38.03L121-109.47L100.75-112.22Q99.25-116.72 100.75-121.22L100.75-121.22L135-120.47L236-120.47L236.25-62.47Q230.75-61.47 227-62.47L227-62.47L215.25-107.72L147.75-107.72L147.75-32.72L187.75-33.47L193.50-57.97Q197.25-58.97 202.75-57.97L202.75-57.97Q201.75-43.97 201.75-25.72L201.75-25.72Q201.75-8.97 202.50 6.78L202.50 6.78Q198 8.28 193.50 6.78L193.50 6.78L188-19.22L147.75-19.97L147.75 65.78L222.75 65.78L234.50 20.53Q238.25 19.53 243.75 20.53L243.75 20.53L243.50 78.53L135 78.53L99.25 79.28Q97.75 74.78 99.25 70.28L99.25 70.28L120 67.53Q121 54.78 121 38.03Z"/><path xml:space="preserve" font-family="Adamina" font-size="250" font-style="normal" font-weight="normal" style="stroke: none; stroke-width: 1; stroke-dasharray: none; stroke-linecap: butt; stroke-dashoffset: 0; stroke-linejoin: miter; stroke-miterlimit: 4; is-custom-font: none; font-file-url: none; fill: rgb(0,0,0); fill-rule: nonzero; opacity: 1; white-space: pre;" d="M438.50-42.97L386.75 89.53L381.50 89.53L329.75-42.72L314-45.72Q313-49.72 314-55.72L314-55.72Q327.75-54.72 343.75-54.72L343.75-54.72Q358-54.72 374-55.47L374-55.47Q375.50-50.47 374-45.72L374-45.72L358.25-42.72L378.50 14.78Q387.25 39.78 390 51.03L390 51.03L390.50 51.03Q396.50 29.53 402.25 16.03L402.25 16.03L423.75-43.72L404.25-45.72Q403.25-49.72 404.25-55.72L404.25-55.72Q418-54.72 430.50-54.72L430.50-54.72Q441-54.72 457.25-55.47L457.25-55.47Q458.75-50.47 457.25-45.72L457.25-45.72L438.50-42.97Z"/></g>
</svg>